<svg width="34" height="13" viewBox="0 0 34 13" fill="none" xmlns="http://www.w3.org/2000/svg">
<g clip-path="url(#clip0_503_152)">
<path d="M17 12.9261C26.3888 12.9261 34 10.049 34 6.49999C34 2.95093 26.3888 0.0738525 17 0.0738525C7.61116 0.0738525 0 2.95093 0 6.49999C0 10.049 7.61116 12.9261 17 12.9261Z" fill="white"/>
<path d="M23.6189 7.01705C23.3295 6.86933 22.8593 7.12785 22.4615 7.6449C22.1359 8.05115 21.9551 8.49433 21.9551 8.90058C21.9551 9.0483 21.9912 9.23296 22.1359 9.30683C22.4253 9.45455 22.787 9.23296 23.0402 9.01137C23.221 8.86365 23.3295 8.71592 23.4742 8.53126C23.6189 8.3466 23.6912 8.19887 23.7998 7.97728C23.7998 7.94035 23.7998 7.94035 23.7998 7.94035C23.7636 7.94035 23.7274 7.90342 23.7274 7.86649C23.7274 7.86649 23.7274 7.82955 23.7274 7.79262C23.8359 7.5341 23.9444 7.16478 23.6189 7.01705Z" fill="#3C59F0"/>
<path d="M16.9997 1.0708C8.31882 1.0708 1.26562 3.5083 1.26562 6.49978C1.26562 9.49126 8.31882 11.9657 16.9997 11.9657C25.6805 11.9657 32.7337 9.52819 32.7337 6.53671C32.7337 3.5083 25.6805 1.0708 16.9997 1.0708ZM8.93371 10.0822C7.99328 10.0822 7.19754 9.49126 7.08903 8.4941C7.05286 7.94012 7.19754 7.42307 7.4869 7.01682C7.77626 6.64751 8.24648 6.35205 8.64435 6.27819C8.78903 6.24126 8.93371 6.27819 9.00605 6.35205C9.11456 6.49978 9.07839 6.64751 8.96988 6.68444C8.68052 6.83216 8.31882 7.12762 8.13797 7.49694C7.99328 7.79239 7.95711 8.16171 8.17414 8.4941C8.53584 9.08501 9.58477 9.08501 10.5614 8.16171C10.8146 7.94012 11.0316 7.71853 11.2486 7.46001C11.6826 6.97989 11.8273 6.79523 12.3699 5.98273V5.9458C12.3699 5.9458 12.3699 5.9458 12.3337 5.9458C11.972 5.9458 11.6103 6.0566 11.3209 6.31512C11.2124 6.38898 11.1039 6.38898 11.0316 6.27819C10.9592 6.16739 10.9954 6.0566 11.1039 5.98273C11.6103 5.61341 12.189 5.53955 12.7678 5.46569C12.7678 5.46569 12.8039 5.46569 12.8401 5.42876C13.0933 5.1333 13.238 4.83785 13.4912 4.54239C13.7443 4.21001 14.0699 3.95148 14.3231 3.72989C14.6848 3.43444 14.9018 3.32364 15.1188 3.17591C15.1912 3.13898 15.1188 3.10205 15.0826 3.10205C13.8167 2.84353 12.4784 2.54807 11.2486 3.02819C10.3805 3.36057 9.98265 4.06228 10.1635 4.54239C10.3082 4.87478 10.7422 4.94864 11.1401 4.72705C11.4656 4.54239 11.7912 4.28387 12.0082 3.95148C12.1167 3.76682 12.4061 3.91455 12.2614 4.24694C11.8997 5.1333 11.1763 5.83501 10.3443 5.87194C9.62094 5.90887 9.15073 5.35489 9.15073 4.65319C9.15073 3.32364 10.5975 2.43728 12.1529 2.28955C13.9975 2.14182 15.7337 2.62194 17.5784 2.84353C18.989 3.02819 20.3273 3.02819 21.738 2.6958C21.9188 2.65887 22.0273 2.76966 22.0273 2.95432C22.0273 3.21285 21.8103 3.43444 21.3763 3.69296C20.8337 3.98841 20.2912 4.06228 19.7124 4.09921C18.3018 4.09921 17.0358 3.54523 15.6614 3.24978C15.6614 3.32364 15.6614 3.39751 15.6252 3.43444C14.8656 3.98841 14.2146 4.57932 13.7443 5.35489C13.7443 5.39182 13.7443 5.39182 13.7805 5.39182C14.1784 5.35489 14.5401 5.35489 14.9018 5.31796C14.9741 5.31796 14.9741 5.28103 14.9741 5.2441C14.938 4.98557 15.0103 4.65319 15.2635 4.4316C15.5167 4.21001 15.806 4.17307 16.0231 4.35773C16.2401 4.54239 16.2401 4.87478 16.0954 5.09637C15.9507 5.35489 15.7699 5.46569 15.5529 5.53955C15.5529 5.53955 15.5167 5.53955 15.5167 5.57648C15.5167 5.65035 15.806 5.79807 15.8422 5.83501C15.8784 5.87194 15.8422 5.9458 15.8061 5.98273C15.7699 6.01966 15.7337 6.0566 15.6614 6.0566C15.6252 6.0566 15.589 6.0566 15.5167 6.01966C15.4082 5.9458 15.2273 5.83501 15.1188 5.72421C15.0826 5.68728 15.0826 5.68728 14.9741 5.68728C14.5763 5.72421 13.9614 5.76114 13.5273 5.83501C13.4188 5.83501 13.4188 5.87194 13.3826 5.90887C12.7316 7.01682 12.0082 8.23557 11.2124 9.04807C10.3443 9.86057 9.65711 10.0822 8.93371 10.0822ZM26.9826 4.65319C26.838 4.87478 24.3784 8.75262 24.1975 9.15887C24.1614 9.26966 24.1252 9.38046 24.1975 9.45432C24.3422 9.63898 24.6316 9.52819 24.8124 9.41739C25.355 9.04807 25.7167 8.56796 26.1507 8.16171C26.1869 8.16171 26.2231 8.12478 26.2592 8.16171C26.3316 8.23557 26.4039 8.30944 26.4763 8.34637C26.5124 8.3833 26.4763 8.42023 26.4763 8.42023C26.0784 8.93728 25.6082 9.41739 25.2103 9.74978C24.5592 10.2668 23.872 10.4146 23.5465 10.0822C23.438 9.97137 23.3656 9.78671 23.3656 9.63898C23.3656 9.56512 23.3295 9.56512 23.2933 9.60205C22.8954 10.0083 22.2082 10.4515 21.5933 10.1191C21.0869 9.86057 20.9422 9.23273 21.0507 8.67876C21.0507 8.67876 21.0507 8.60489 20.9784 8.64182C20.8699 8.71569 20.7252 8.82648 20.5443 8.86341C20.3273 8.93728 20.2188 8.97421 20.038 8.97421C19.7848 8.97421 19.5678 8.86341 19.3869 8.60489C19.3146 8.45716 19.2784 8.27251 19.2422 8.08785C19.2422 8.08785 19.206 8.05091 19.206 8.08785C18.772 8.75262 18.3741 9.38046 17.9763 10.0452C17.9401 10.0822 17.9401 10.0822 17.9039 10.0822C17.6507 10.0822 17.3614 10.0822 17.072 10.0822C17.0358 10.0822 16.9997 10.0452 17.0358 10.0083C17.1805 9.71285 17.9763 8.53103 18.555 7.49694C18.6997 7.20148 18.6635 7.05376 18.5912 7.01682C18.4826 6.94296 18.2295 7.05376 18.0486 7.20148C17.5061 7.60773 17.072 8.27251 16.8188 8.56796C16.6741 8.75262 16.5656 8.97421 16.2039 9.38046C15.5529 9.97137 14.7933 10.3407 14.1061 10.0822C13.7082 9.93444 13.455 9.63898 13.3465 9.23273C13.3103 9.15887 13.2741 9.12194 13.238 9.1958C13.1295 9.34353 12.8763 9.56512 12.6954 9.67591C12.6592 9.67591 12.6231 9.71285 12.5869 9.71285C12.5507 9.67591 12.4061 9.49126 12.3699 9.41739C12.3337 9.38046 12.3699 9.3066 12.406 9.3066C12.6954 9.04807 12.8401 8.90035 12.9486 8.75262C13.0209 8.64182 13.0933 8.4941 13.2018 8.30944C13.3826 7.86626 13.7443 7.05376 14.5401 6.64751C14.8295 6.49978 15.1188 6.38898 15.4805 6.31512C15.6252 6.31512 15.7337 6.31512 15.7699 6.42591C15.7699 6.46285 15.8422 6.57364 15.8422 6.64751C15.8422 6.68444 15.8422 6.72137 15.8061 6.7583C15.3358 6.94296 14.9018 7.20148 14.5763 7.64466C14.2146 8.12478 14.1061 8.71569 14.3592 9.04807C14.5401 9.3066 14.8295 9.34353 15.0826 9.23273C15.4805 9.08501 15.8422 8.71569 16.0231 8.27251C16.2039 7.79239 16.2401 7.23841 16.0954 6.7583C16.0592 6.68444 16.0954 6.61057 16.1316 6.57364C16.2401 6.49978 16.3848 6.42591 16.4209 6.38898C16.5295 6.35205 16.638 6.38898 16.6741 6.46285C16.8188 6.68444 16.8912 7.01682 16.9273 7.34921C16.9273 7.42307 16.9635 7.42307 16.9997 7.38614C17.2529 7.09069 17.5061 6.79523 17.7954 6.53671C18.0486 6.31512 18.3741 6.16739 18.6997 6.16739C19.0975 6.16739 19.3146 6.46285 19.2784 6.94296C19.2784 7.01682 19.3146 7.01682 19.3507 6.94296C19.4592 6.7583 19.5678 6.68444 19.6763 6.57364C19.9656 6.35205 20.255 6.24126 20.5443 6.24126C20.906 6.27819 21.1954 6.61057 21.1592 7.01682C21.1231 7.27535 20.9784 7.49694 20.7614 7.60773C20.5805 7.71853 20.3273 7.6816 20.1826 7.53387C20.038 7.42307 20.0018 7.23841 20.038 7.05376C20.038 7.01682 20.0018 6.97989 19.9656 7.01682C19.6039 7.38614 19.5678 7.90319 19.8209 8.12478C20.0741 8.3833 20.472 8.19864 20.7614 8.01398C21.2678 7.6816 21.6656 7.20148 22.1358 6.83216C22.4614 6.61057 22.7869 6.38898 23.1848 6.31512C23.4018 6.27819 23.6188 6.31512 23.8358 6.38898C24.1252 6.49978 24.306 6.7583 24.306 6.94296C24.306 7.01682 24.3422 7.01682 24.3784 6.94296C24.5954 6.57364 25.789 4.76398 25.8975 4.54239C25.9337 4.46853 25.9699 4.46853 26.0061 4.46853C26.2592 4.46853 26.6209 4.46853 26.8741 4.46853C26.9826 4.57932 27.0188 4.61626 26.9826 4.65319Z" fill="#3C59F0"/>
<path d="M15.3364 5.17048C15.4811 5.13355 15.5896 5.02275 15.6981 4.91196C15.7704 4.80116 15.8066 4.65343 15.7343 4.57957C15.6619 4.5057 15.5534 4.54264 15.4811 4.6165C15.3364 4.76423 15.2641 4.94889 15.3002 5.13355C15.3002 5.17048 15.3002 5.17048 15.3364 5.17048Z" fill="#3C59F0"/>
<path d="M17 0C7.55957 0 0 2.88068 0 6.5C0 10.0824 7.63191 13 17 13C26.3681 13 34 10.0824 34 6.5C34 2.91761 26.3681 0 17 0ZM17 12.446C7.99362 12.446 0.723404 9.78693 0.723404 6.5C0.723404 3.21307 7.99362 0.553977 17 0.553977C26.0064 0.553977 33.2766 3.21307 33.2766 6.5C33.2766 9.78693 26.0064 12.446 17 12.446Z" fill="#3C59F0"/>
</g>
<defs>
<clipPath id="clip0_503_152">
<rect width="34" height="13" fill="white"/>
</clipPath>
</defs>
</svg>
